FFmpeg version SVN-r25716, Copyright (c) 2000-2010 the FFmpeg developers  built on Nov 10 2010 12:23:18 with gcc 4.1.2 20080704 (Red Hat 4.1.2-48)  configuration: --enable-libmp3lame --enable-shared --disable-mmx --arch=x86_64  libavutil     50.33. 0 / 50.33. 0  libavcore      0.12. 1 /  0.12. 1  libavcodec    52.94. 4 / 52.94. 4  libavformat   52.84. 0 / 52.84. 0  libavdevice   52. 2. 2 / 52. 2. 2  libavfilter    1.59. 0 /  1.59. 0  libswscale     0.12. 0 /  0.12. 0Seems stream 0 codec frame rate differs from container frame rate: 600.00 (600/1) -> 6.00 (6/1)Input #0, mov,mp4,m4a,3gp,3g2,mj2, from '/RAID10/data/converted_video_files/28775.mov':  Metadata:    major_brand     : qt      minor_version   : 537199360    compatible_brands: qt    Duration: 00:00:13.83, start: 0.000000, bitrate: 861 kb/s    Stream #0.0(eng): Video: mjpeg, gray, 377x304 [PAR 1:1 DAR 377:304], 860 kb/s, 6 fps, 6 tbr, 600 tbn, 600 tbc[buffer @ 0xe9425d0] w:377 h:304 pixfmt:gray[ffsink @ 0xe9356b0] auto-inserting filter 'auto-inserted scaler 0' between the filter 'src' and the filter 'out'[scale @ 0xe9359d0] w:377 h:304 fmt:gray -> w:377 h:304 fmt:yuv420p flags:0x4Output #0, flv, to '/RAID10/data/converted_video_files/28775.flv':  Metadata:    encoder         : Lavf52.84.0    Stream #0.0(eng): Video: flv, yuv420p, 377x304 [PAR 1:1 DAR 377:304], q=2-31, 600 kb/s, 1k tbn, 24 tbcStream mapping:  Stream #0.0 -> #0.0Press [q] to stop encodingframe=   23 fps=  0 q=8.0 size=     275kB time=3.71 bitrate= 608.1kbits/s    frame=   62 fps= 59 q=6.8 size=     529kB time=10.21 bitrate= 424.6kbits/s    frame=   83 fps= 66 q=6.2 Lsize=     588kB time=13.71 bitrate= 351.6kbits/s    video:587kB audio:0kB global headers:0kB muxing overhead 0.255915%15%